

Iron Man 2 2010 CAM XviD-DUBBY

IMDB: http://www.imdb.com/title/tt1228705/
Genre: Action | Adventure | Sci-Fi | Thriller 
Ratings: 7.8/10   9,187 votes

Plot: Billionaire Tony Stark must contend with deadly issues
involving the government, his own friends, as well as new 
enemies due to his superhero alter ego Iron Man.

Video Source: Zheleznyj.chelovek.2.2010.D.CAMRip.ELEKTRI4KA
Audio Source: Iron.Man.2.2010.NEW.AUDIO.CAM.XVID-PrisM
New Folder:   Iron Man 2 2010 CAM XviD-DUBBY

Ok, here is my cam of Iron Man 2, anyway, added a brightness 
filter, and sharpened the pic a bit. Resized original video
to 608 x 240 which is still a 2.5 aspect ratio. not a bad
cam, defently not the worst. Audio is a lot better then the
previous source that was floating around...take it or leave it...


Video
ID                               : 0
Format                           : MPEG-4 Visual
Format profile                   : Advanced Simple@L5
Format settings, BVOP            : Yes
Format settings, QPel            : No
Format settings, GMC             : No warppoints
Format settings, Matrix          : Default (H.263)
Muxing mode                      : Packed bitstream
Codec ID                         : XVID
Codec ID/Hint                    : XviD
Duration                         : 1h 52mn
Bit rate                         : 741 Kbps
Width                            : 608 pixels
Height                           : 240 pixels
Display aspect ratio             : 2.533
Frame rate                       : 25.000 fps
Resolution                       : 8 bits
Colorimetry                      : 4:2:0
Scan type                        : Progressive
Bits/(Pixel*Frame)               : 0.203
Stream size                      : 594 MiB (84%)
Writing library                  : XviD 1.2.1 (UTC 2008-12-04)

Audio
ID                               : 1
Format                           : MPEG Audio
Format version                   : Version 1
Format profile                   : Layer 3
Mode                             : Joint stereo
Codec ID                         : 55
Codec ID/Hint                    : MP3
Duration                         : 1h 52mn
Bit rate mode                    : Constant
Bit rate                         : 128 Kbps
Channel(s)                       : 2 channels
Sampling rate                    : 48.0 KHz
Stream size                      : 103 MiB (15%)
Alignment                        : Split accross interleaves
Interleave, duration             : 40 ms (1.00 video frame)
Interleave, preload duration     : 500 ms